[img]http://www.hotimg.com/direct/G6cSR9W.jpg[/img]
[code]
Carnage 2011 CAM XviD - MiSTERE
 
http://www.imdb.com/title/tt1692486/

Plot: Tells the story of two sets of parents who decide to have a cordial meeting after their sons are involved in a schoolyard brawl.

Source:
      V: TNZ 720p
      A: EVOUTiON

Video
ID                               : 0
Format                           : MPEG-4 Visual
Format profile                   : Advanced Simple@L5
Format settings, BVOP            : 2
Format settings, QPel            : No
Format settings, GMC             : No warppoints
Format settings, Matrix          : Default (H.263)
Muxing mode                      : Packed bitstream
Codec ID                         : XVID
Codec ID/Hint                    : XviD
Duration                         : 1h 15mn
Bit rate                         : 2 585 Kbps
Width                            : 720 pixels
Height                           : 304 pixels
Display aspect ratio             : 2.35:1
Frame rate                       : 25.000 fps
Color space                      : YUV
Chroma subsampling               : 4:2:0
Bit depth                        : 8 bits
Scan type                        : Progressive
Compression mode                 : Lossy
Bits/(Pixel*Frame)               : 0.472
Stream size                      : 1.36 GiB (95%)
Writing library                  : XviD 64

Audio
ID                               : 1
Format                           : MPEG Audio
Format version                   : Version 1
Format profile                   : Layer 3
Mode                             : Joint stereo
Mode extension                   : MS Stereo
Codec ID                         : 55
Codec ID/Hint                    : MP3
Duration                         : 1h 15mn
Bit rate mode                    : Variable
Bit rate                         : 120 Kbps
Nominal bit rate                 : 128 Kbps
Channel(s)                       : 2 channels
Sampling rate                    : 48.0 KHz
Compression mode                 : Lossy
Stream size                      : 64.6 MiB (4%)
Alignment                        : Aligned on interleaves
Interleave, duration             : 24 ms (0.60 video frame)
[/code]
Screens:
[img]http://www.hotimg.com/direct/83P4GKN.png[/img]
[img]http://www.hotimg.com/direct/VkuS6wp.png[/img]